# xmcd
#
# Track frame offsets: 
#        150
#        18143
#        33476
#        47638
#        62249
#        79291
#        103653
#        122605
#        138397
#        155353
#        170155
#        187269
#
# Disc length: 2694 seconds
#
# Revision: 0
# Processed by: cddbd v1.5.2PL0 Copyright (c) Steve Scherf et al.
# Submitted via: ExactAudioCopy v0.99pb5
#
DISCID=a40a840c
DTITLE=Bob Walsh - The Only Soul
DYEAR=2007
DGENRE=Blues
TTITLE0=Low Tide Again
TTITLE1=When My Time Has Come
TTITLE2=The Only Soul
TTITLE3=Just My Luck
TTITLE4=Y'a un Blues Pour Chaque Peine
TTITLE5=I'm A Bluesman
TTITLE6=Sad Clown
TTITLE7=In July
TTITLE8=Brand New Cadillac
TTITLE9=L'excès Me Relaxe
TTITLE10=Emerald Wall (song for Maddy)
TTITLE11=Kind Of Man
EXTD=
EXTT0=
EXTT1=
EXTT2=
EXTT3=
EXTT4=
EXTT5=
EXTT6=
EXTT7=
EXTT8=
EXTT9=
EXTT10=
EXTT11=
PLAYORDER=
